<?xml version="1.0" standalone="no"?>
<!DOCTYPE svg PUBLIC "-//W3C//DTD SVG 20010904//EN"
 "http://www.w3.org/TR/2001/REC-SVG-20010904/DTD/svg10.dtd">
<svg version="1.0" xmlns="http://www.w3.org/2000/svg"
 width="1200.000000pt" height="1200.000000pt" viewBox="0 0 1200.000000 1200.000000"
 preserveAspectRatio="xMidYMid meet">
<metadata>
Created by potrace 1.14, written by Peter Selinger 2001-2017
</metadata>
<g transform="translate(0.000000,1200.000000) scale(0.100000,-0.100000)"
fill="#000000" stroke="none">
<path d="M6014 10419 c-3 -5 12 -9 33 -10 21 0 81 -2 133 -3 52 -2 84 0 70 4
-14 4 -56 8 -95 9 -38 1 -85 4 -103 6 -18 1 -35 -1 -38 -6z"/>
<path d="M5768 10413 c12 -2 30 -2 40 0 9 3 -1 5 -23 4 -22 0 -30 -2 -17 -4z"/>
<path d="M5340 10369 c-14 -5 -1 -6 30 -3 30 3 57 8 60 10 7 7 -61 1 -90 -7z"/>
<path d="M6604 10361 c4 -6 16 -11 26 -11 57 0 491 -116 765 -205 55 -18 116
-35 135 -39 110 -21 -397 157 -555 194 -97 23 -215 46 -280 55 -22 3 -53 8
-69 11 -19 4 -26 3 -22 -5z"/>
<path d="M6420 10277 c3 -3 30 -8 60 -12 30 -4 53 -4 49 -1 -3 3 -30 8 -60 12
-29 3 -52 4 -49 1z"/>
<path d="M5557 10254 c-4 -4 -7 -14 -7 -23 0 -11 3 -12 11 -4 6 6 10 16 7 23
-2 6 -7 8 -11 4z"/>
<path d="M5640 10251 c-14 -4 -20 -10 -14 -14 6 -3 20 0 30 8 21 16 20 16 -16
6z"/>
<path d="M6400 10242 c0 -12 116 -35 233 -47 50 -4 67 -11 67 -24 0 -5 -21 -5
-47 0 -25 5 -74 12 -107 15 -34 4 -74 8 -91 9 -65 7 -519 23 -745 26 -59 1
-94 -3 -113 -14 -21 -11 -53 -14 -118 -13 -49 1 -92 5 -95 9 -4 4 -1 7 7 7 29
1 94 12 99 17 5 6 -116 -3 -163 -12 -15 -2 -55 -10 -90 -15 -385 -66 -802
-204 -1167 -387 -90 -46 -169 -83 -175 -83 -5 0 9 9 33 20 23 10 42 23 42 29
0 5 15 18 33 30 113 73 -181 -67 -323 -153 -90 -55 -296 -196 -343 -236 -12
-10 -62 -52 -112 -93 -135 -113 -298 -278 -424 -429 -27 -33 0 -18 52 29 l52
47 -47 -50 c-27 -27 -48 -53 -48 -57 0 -7 -39 -53 -95 -112 -11 -12 -47 -55
-80 -96 -33 -41 -62 -76 -65 -79 -4 -3 -21 -26 -39 -52 -18 -25 -47 -52 -65
-59 -35 -15 -55 -36 -87 -94 l-22 -40 23 20 24 20 -18 -30 c-39 -62 -44 -67
-51 -55 -7 12 -10 9 -47 -60 -16 -30 -16 -31 -1 -19 12 10 10 3 -5 -21 -13
-19 -28 -45 -34 -57 -6 -13 -17 -23 -24 -23 -17 0 -67 -87 -58 -102 4 -6 3 -8
-4 -4 -6 4 -10 -1 -10 -11 1 -10 -10 -36 -24 -58 -66 -106 -199 -378 -198
-408 1 -6 8 1 16 16 30 55 23 20 -17 -88 -31 -85 -38 -100 -34 -65 5 40 4 43
-8 25 -54 -79 -150 -391 -193 -630 -16 -86 -18 -101 -33 -215 -25 -179 -39
-385 -46 -684 -6 -219 -2 -268 19 -260 9 4 13 -12 15 -57 1 -35 4 -66 7 -71 3
-4 -1 -5 -9 -2 -11 4 -14 -9 -16 -55 -2 -55 -1 -59 19 -54 17 4 20 0 21 -23 0
-16 2 -38 5 -49 2 -11 6 -40 10 -65 3 -25 9 -61 14 -80 5 -19 12 -51 15 -70 9
-56 62 -276 95 -395 17 -60 38 -135 46 -165 28 -103 42 -145 63 -185 12 -21
21 -45 21 -53 0 -7 5 -10 12 -6 6 4 8 3 5 -4 -4 -5 -1 -34 7 -64 10 -37 18
-52 29 -50 14 2 33 -39 28 -66 -1 -6 3 -20 9 -30 9 -14 10 -13 5 8 -3 14 9 -4
25 -39 17 -36 28 -71 25 -78 -2 -8 -1 -12 4 -9 14 9 64 -101 54 -118 -6 -11
-17 2 -42 50 -18 36 -36 63 -38 60 -9 -8 37 -118 89 -216 113 -213 318 -493
581 -793 30 -34 102 -116 159 -182 204 -232 456 -452 698 -610 98 -64 98 -64
60 -61 -21 2 -41 12 -54 28 -12 13 -61 46 -111 73 -49 26 -107 63 -128 81 -20
19 -42 34 -48 34 -10 0 -104 63 -119 80 -3 3 -40 34 -82 70 -43 35 -73 67 -67
70 6 4 1 13 -13 22 -43 27 -53 29 -24 5 17 -15 24 -26 16 -29 -13 -4 128 -130
275 -244 347 -270 772 -499 1236 -668 190 -68 536 -166 678 -191 19 -3 37 -7
40 -9 3 -2 22 -7 41 -10 44 -7 75 -13 175 -32 100 -19 127 -22 295 -30 220
-12 430 -8 527 10 10 2 50 7 88 11 79 7 128 14 165 20 14 3 43 7 65 10 465 64
1119 292 1544 537 46 27 86 47 88 44 2 -2 -13 -18 -34 -36 -31 -26 -33 -31
-14 -25 29 9 127 66 196 113 202 141 259 185 445 345 174 151 164 162 -21 24
-133 -99 -303 -210 -444 -292 -112 -65 -453 -235 -469 -235 -6 1 3 8 19 17
113 59 522 317 545 343 3 3 48 37 100 75 52 38 97 72 100 76 3 3 34 30 70 60
228 188 491 466 679 719 239 320 470 770 496 966 3 27 9 62 12 78 4 21 2 27
-8 21 -8 -6 -11 -4 -7 6 26 68 100 327 112 389 2 14 7 36 10 50 10 45 16 84
22 145 3 33 6 69 7 80 1 12 -4 20 -12 20 -10 0 -19 -18 -26 -50 l-11 -50 -8
55 c-4 30 -7 71 -7 90 1 27 -1 32 -9 20 -12 -18 -11 -87 2 -113 7 -13 3 -31
-10 -60 -23 -50 -37 -121 -26 -139 5 -7 7 -29 6 -48 -2 -26 0 -31 7 -20 6 8
11 23 11 32 0 9 4 19 9 22 5 3 2 -20 -6 -51 -8 -32 -16 -62 -17 -68 -23 -107
-30 -132 -37 -141 -5 -6 -6 -13 -3 -16 7 -8 -49 -195 -97 -327 -42 -111 -76
-177 -147 -284 -52 -76 -65 -88 -27 -24 25 44 24 67 -3 44 -13 -10 -14 -9 -3
11 7 14 8 22 1 22 -5 0 -10 -6 -11 -12 -2 -34 -11 -63 -28 -87 -10 -14 -31
-51 -48 -81 -57 -105 -114 -189 -126 -185 -13 5 -20 -5 -125 -156 -37 -53 -90
-123 -118 -155 -28 -33 -80 -93 -115 -134 -35 -41 -66 -77 -69 -80 -3 -3 -22
-24 -42 -47 -20 -23 -38 -38 -40 -32 -2 5 -32 -19 -68 -52 -36 -33 -82 -73
-102 -87 -21 -15 -80 -62 -133 -106 -81 -67 -98 -77 -121 -72 l-27 7 34 32
c22 21 45 32 65 33 25 1 46 16 105 76 41 41 119 114 174 164 221 199 455 452
455 494 0 5 4 10 8 10 5 0 22 23 38 51 16 28 34 58 39 67 6 10 26 44 46 77 50
82 123 224 165 320 20 44 42 94 49 110 36 80 50 114 66 165 10 30 18 48 19 40
1 -13 70 114 70 128 0 3 -9 -3 -20 -13 -25 -22 -25 -22 1 51 11 32 23 70 25
82 3 13 12 49 20 80 8 32 17 66 19 76 3 10 9 33 14 50 6 17 13 52 17 78 3 26
13 53 21 59 23 19 40 60 47 109 4 25 10 72 15 105 4 32 6 73 4 90 -7 47 -7 86
1 140 4 28 11 79 16 115 18 124 21 145 26 160 3 8 8 45 10 83 4 59 3 67 -13
67 -11 0 -14 3 -7 8 10 7 34 65 34 83 0 5 -4 9 -9 9 -4 0 -13 -19 -18 -42 -9
-37 -10 -30 -8 53 2 96 2 97 -27 113 l-28 17 -1 -43 c-3 -98 -5 -154 -7 -165
-1 -6 -15 0 -30 15 -17 16 -27 35 -25 47 2 11 6 67 9 125 6 105 0 134 -10 50
-8 -66 -23 -139 -40 -190 -19 -59 -20 -27 -1 35 8 27 13 51 11 53 -6 5 -44
-117 -50 -158 -3 -19 -10 -57 -15 -85 -5 -27 -12 -70 -16 -95 -9 -65 -15 -83
-38 -102 -11 -10 -21 -18 -22 -18 -4 0 12 341 20 442 2 26 -1 50 -6 53 -16 10
-26 -35 -28 -129 0 -50 -4 -149 -7 -221 -3 -71 -6 -155 -7 -187 -1 -31 -6 -54
-11 -50 -5 3 -6 -2 -3 -12 4 -10 3 -15 -3 -11 -6 3 -10 -4 -10 -17 0 -17 -3
-20 -9 -9 -6 10 -9 4 -9 -20 0 -43 -57 -316 -83 -392 -11 -31 -28 -66 -39 -77
-11 -11 -20 -25 -20 -31 0 -5 -5 -7 -12 -3 -8 5 -9 2 -5 -10 4 -10 -4 -39 -18
-70 -14 -29 -25 -58 -25 -65 0 -6 -21 -66 -46 -134 -25 -67 -48 -146 -50 -176
-4 -42 -17 -72 -59 -140 -63 -100 -84 -130 -85 -116 0 6 4 15 9 20 5 6 28 53
51 105 23 52 48 109 55 125 7 17 17 41 20 55 4 14 13 39 21 55 23 51 84 272
86 307 1 19 -4 44 -11 56 -6 12 -9 22 -5 22 3 0 1 7 -6 15 -8 9 -10 30 -7 53
3 20 3 31 0 24 -2 -6 -9 -10 -14 -6 -5 3 -9 -21 -10 -53 0 -32 -2 -68 -5 -80
-2 -13 1 -23 6 -23 15 0 12 -17 -7 -36 -10 -10 -17 -19 -16 -21 1 -1 -7 -24
-19 -50 -11 -27 -20 -58 -20 -70 1 -13 -2 -23 -7 -23 -5 0 -12 -12 -15 -26 -4
-14 -18 -49 -31 -77 -28 -58 -28 -57 -16 -57 12 0 47 68 56 108 3 18 11 32 16
32 13 0 11 -21 -7 -55 -9 -16 -18 -39 -20 -50 -5 -26 -76 -186 -81 -182 -2 2
4 21 12 41 9 21 14 45 12 54 -4 15 -5 15 -6 0 0 -10 -5 -18 -10 -18 -5 0 -18
-20 -30 -45 -25 -54 -38 -60 -15 -7 26 62 27 69 4 32 -13 -19 -23 -48 -24 -65
-2 -43 -58 -156 -117 -233 -28 -37 -46 -68 -40 -70 14 -5 -40 -77 -165 -224
-194 -226 -370 -413 -434 -462 -14 -11 -61 -51 -105 -91 -170 -153 -189 -140
-23 16 155 146 269 257 243 237 -45 -34 -47 -27 -5 14 25 25 53 61 63 82 9 20
52 80 95 134 204 252 342 470 482 758 39 79 70 146 70 149 0 3 9 24 19 48 10
23 32 76 47 117 15 41 42 108 61 148 24 54 31 81 27 107 -3 19 1 56 9 82 8 26
11 56 8 66 -5 15 -10 12 -26 -15 -11 -18 -33 -60 -48 -93 -28 -61 -30 -57 -13
30 9 49 17 119 12 114 -3 -3 -23 -73 -45 -155 -44 -165 -76 -272 -115 -382
-14 -41 -26 -76 -26 -80 0 -3 17 21 38 54 22 32 48 67 60 78 l21 19 -16 -44
c-10 -24 -27 -62 -40 -84 -13 -22 -44 -78 -70 -125 -89 -163 -197 -346 -259
-440 -118 -179 -284 -390 -308 -390 -13 0 -75 -60 -76 -72 0 -5 0 -12 0 -16 0
-15 -170 -178 -250 -240 -27 -21 -98 -60 -145 -81 -33 -14 -35 -16 55 59 36
30 123 112 195 182 71 70 131 128 133 128 1 0 -3 -10 -9 -22 -11 -21 -11 -22
5 -9 9 8 14 21 11 30 -3 10 12 34 38 61 97 104 219 263 215 281 -2 7 6 15 17
17 11 2 27 13 36 23 9 10 19 16 22 13 3 -3 22 27 43 67 20 41 45 80 55 87 11
7 19 18 19 24 0 7 -7 3 -15 -8 -8 -10 -15 -14 -15 -7 0 9 77 130 97 153 2 2 2
-8 -1 -23 -6 -37 8 -34 27 6 53 111 110 280 132 391 9 43 37 135 62 205 57
160 63 181 54 181 -18 0 -59 -41 -65 -65 -4 -14 -11 -23 -16 -20 -6 3 -10 -1
-10 -9 0 -9 -5 -16 -11 -16 -5 0 -7 -4 -4 -10 3 -5 2 -10 -3 -10 -5 0 -9 -6
-9 -12 0 -19 -104 -311 -116 -325 -12 -16 0 -80 15 -85 27 -9 -59 -178 -90
-178 -11 0 -84 -139 -102 -192 -6 -21 -17 -38 -25 -38 -26 0 -161 -182 -168
-228 -4 -30 -36 -72 -63 -84 -13 -6 -24 -17 -24 -23 0 -15 -308 -327 -415
-421 -142 -125 -256 -214 -282 -220 -15 -4 -67 -27 -117 -52 -505 -248 -704
-325 -891 -345 -22 -3 -56 -12 -76 -20 -36 -16 -217 -56 -274 -61 -16 -2 -59
-5 -95 -6 l-65 -3 55 -7 c52 -6 53 -7 15 -9 -37 -3 -67 -5 -140 -11 -39 -4 60
-20 128 -22 55 -2 43 -13 -23 -22 -218 -31 -522 -25 -750 14 -30 5 -73 12 -95
15 -62 9 -93 14 -198 36 -54 11 -101 18 -104 16 -12 -12 477 -104 567 -107 10
0 11 -3 3 -11 -6 -6 -9 -18 -6 -25 7 -19 9 -19 -183 21 -557 118 -842 209
-1140 365 -477 251 -955 674 -1281 1136 -169 240 -330 543 -421 794 -76 208
-125 397 -157 600 -22 141 -24 162 -31 325 -4 83 -11 161 -15 175 l-7 25 -1
-27 c-1 -37 -18 -36 -26 1 -6 29 -2 97 16 266 6 55 11 109 12 120 2 11 6 25 9
31 4 6 9 23 12 38 3 15 10 43 16 62 6 18 9 42 6 51 -3 10 1 48 8 85 7 37 9 65
4 62 -4 -3 -8 -13 -8 -22 0 -34 -22 -95 -29 -83 -7 10 -20 -63 -37 -196 -2
-18 -6 -48 -8 -65 -10 -71 -19 -239 -20 -345 -1 -62 -5 -108 -9 -104 -11 11
-13 527 -3 641 32 380 93 629 234 950 40 92 56 137 48 142 -13 9 -34 -30 -88
-166 -104 -260 -194 -619 -223 -891 -3 -33 -8 -67 -10 -75 -2 -8 -6 -54 -10
-101 -3 -47 -8 -95 -10 -105 -2 -11 -4 -40 -4 -66 -1 -27 -6 -48 -11 -48 -21
0 -8 247 25 490 23 173 132 552 230 800 36 91 189 411 238 496 115 202 298
461 447 633 40 46 64 79 54 73 -11 -6 -31 -24 -44 -40 -14 -16 -55 -62 -92
-103 -168 -185 -396 -512 -501 -719 -9 -19 -14 -26 -11 -15 4 11 9 34 12 52 2
19 11 35 22 38 11 3 22 23 29 50 6 26 19 49 31 55 11 6 32 34 46 63 67 131
211 334 330 464 24 26 44 50 44 53 0 12 -40 8 -51 -6 -6 -8 -16 -14 -21 -14
-9 0 33 59 74 104 10 11 18 26 18 33 0 7 -17 -6 -37 -29 -21 -24 -83 -90 -138
-148 -55 -58 -111 -122 -124 -142 -12 -21 -27 -38 -32 -38 -6 0 -7 5 -4 10 3
6 4 10 2 10 -3 0 -32 -42 -65 -92 -229 -356 -396 -722 -482 -1053 -27 -106
-29 -160 -4 -100 18 41 17 11 -1 -50 -8 -27 -13 -38 -11 -22 2 18 -1 27 -10
27 -12 0 -18 -13 -11 -24 1 -2 -5 -12 -14 -22 -21 -25 -103 -454 -90 -467 6
-6 8 -3 5 10 -3 12 -1 24 4 27 10 6 10 -19 -3 -149 -5 -55 -14 -176 -20 -274
-2 -35 -9 -68 -15 -75 -8 -8 -10 47 -6 224 3 129 8 253 11 275 14 106 26 192
30 215 2 14 6 41 9 60 2 19 12 69 21 110 9 41 18 83 20 92 12 56 62 230 97
332 57 170 189 476 206 476 4 0 8 8 9 18 4 57 297 506 425 653 13 15 41 48 63
75 74 90 259 276 355 358 52 44 97 83 100 87 15 18 212 165 318 237 68 46 121
86 118 89 -4 5 -92 -48 -133 -80 -9 -6 -13 -6 -13 0 0 19 387 253 417 253 7 0
16 6 20 14 4 7 40 27 78 43 127 54 224 106 219 115 -4 5 4 17 17 26 l23 16
-24 7 c-14 3 -30 2 -36 -3 -6 -4 -40 -18 -75 -29 -117 -38 -322 -148 -277
-149 9 0 19 4 22 9 3 5 21 12 39 15 18 3 55 20 80 36 45 28 97 48 97 37 0 -3
-43 -26 -97 -53 -117 -57 -270 -143 -378 -210 -44 -28 -96 -56 -115 -63 -54
-18 -135 -71 -146 -94 -9 -21 -134 -94 -134 -79 0 4 19 20 42 35 23 15 35 27
26 27 -36 0 -237 -169 -429 -360 -159 -158 -270 -286 -392 -452 -44 -60 -80
-108 -82 -108 -6 0 76 156 87 165 7 6 33 37 58 70 24 33 60 76 80 96 19 21 51
58 70 83 19 25 42 46 51 46 9 0 36 28 60 61 50 70 51 71 99 102 19 13 35 27
36 32 3 37 63 110 71 88 3 -9 19 -3 49 18 24 16 44 33 44 37 0 4 22 22 48 40
27 18 72 55 101 82 28 27 75 64 104 83 60 40 116 87 104 87 -10 0 -50 -20 -57
-29 -3 -3 -25 -20 -50 -36 -70 -47 -191 -135 -235 -172 -23 -20 -47 -32 -57
-29 -30 7 -245 -195 -437 -409 l-53 -60 43 55 c81 102 93 115 219 240 148 148
171 169 319 289 228 184 533 379 786 501 89 43 339 128 644 220 57 17 101 33
99 35 -2 2 -63 -11 -135 -28 -72 -18 -129 -29 -127 -25 3 5 -2 8 -11 8 -9 0
-13 -4 -10 -10 3 -5 0 -7 -8 -4 -13 5 -213 -61 -294 -97 -23 -11 -44 -19 -46
-19 -3 0 -22 -7 -43 -16 -22 -9 -41 -17 -44 -17 -20 -3 -366 -187 -453 -240
-123 -76 -133 -73 -19 6 116 80 202 130 227 132 27 3 146 65 125 65 -8 0 17
14 55 32 39 17 88 39 110 49 22 10 71 30 109 43 38 14 74 31 80 37 8 9 7 10
-3 4 -11 -6 -13 -4 -8 8 7 20 -4 21 -52 7 -64 -18 -41 -4 64 40 106 44 150 78
53 39 -29 -11 -60 -22 -68 -24 -79 -21 -326 -113 -391 -145 -83 -41 -103 -46
-74 -16 21 21 12 20 -28 -1 -18 -9 -34 -18 -37 -18 -3 0 -26 -11 -52 -22 -50
-23 -65 -39 -25 -28 12 4 -7 -11 -43 -32 -162 -97 -339 -221 -515 -362 -131
-105 -293 -256 -419 -392 -104 -111 -256 -304 -256 -324 0 -13 7 -9 30 16 16
19 30 31 30 27 0 -4 -14 -23 -31 -43 -20 -23 -37 -34 -48 -30 -11 3 -23 -5
-34 -25 -10 -16 -22 -29 -27 -27 -5 1 -62 -79 -127 -178 -153 -231 -166 -253
-159 -264 3 -5 -37 -96 -89 -204 -52 -107 -116 -245 -143 -308 -57 -133 -86
-159 -41 -37 143 389 375 800 637 1128 279 349 622 662 990 904 95 63 123 86
106 86 -4 0 -37 -19 -73 -43 -89 -58 -91 -59 -91 -49 0 5 21 22 48 39 333 216
679 379 1042 490 112 34 349 95 420 107 19 3 46 8 60 11 26 5 35 7 179 30 46
7 115 12 152 11 37 0 65 2 62 7 -2 4 8 7 24 8 15 0 46 3 68 5 22 3 85 6 140 7
58 1 101 6 102 12 1 6 -11 9 -25 8 -50 -3 -167 -4 -182 -3 -8 1 3 6 25 10 22
5 162 6 310 4 149 -3 286 -5 305 -5 19 0 96 -9 170 -19 74 -11 155 -22 180
-24 25 -3 62 -8 83 -11 29 -5 37 -3 37 9 0 12 7 14 29 10 16 -3 31 -2 35 4 8
13 -131 57 -239 76 -117 20 -295 37 -295 28z m-2665 -610 c-6 -5 -55 -40 -110
-77 -55 -37 -119 -82 -141 -99 -23 -17 -52 -38 -64 -46 -12 -8 -60 -46 -106
-83 -46 -38 -84 -66 -84 -64 0 7 153 133 245 201 112 84 304 207 260 168z
m-515 -375 c0 -2 -15 -16 -32 -33 l-33 -29 29 33 c28 30 36 37 36 29z m-71
-69 c-2 -2 -20 -16 -39 -33 l-35 -30 29 33 c17 17 34 32 40 32 5 0 7 -1 5 -2z
m-204 -188 c-16 -16 -31 -28 -33 -25 -4 4 48 54 57 55 3 0 -8 -13 -24 -30z
m230 -340 c-3 -5 -12 -10 -18 -10 -7 0 -6 4 3 10 19 12 23 12 15 0z m-25 -23
c0 -1 -24 -25 -52 -52 l-53 -50 50 53 c46 48 55 57 55 49z m-100 -110 c0 -2
-17 -19 -37 -38 l-37 -34 30 37 c25 31 44 46 44 35z m-80 -51 c0 -2 -8 -10
-17 -17 -16 -13 -17 -12 -4 4 13 16 21 21 21 13z m10 -29 c0 -2 -10 -12 -22
-23 l-23 -19 19 23 c18 21 26 27 26 19z m-62 -37 c-7 -10 -14 -17 -17 -15 -4
4 18 35 25 35 2 0 -1 -9 -8 -20z m22 -14 c0 -2 -8 -10 -17 -17 -16 -13 -17
-12 -4 4 13 16 21 21 21 13z m-30 -40 c0 -2 -8 -10 -17 -17 -16 -13 -17 -12
-4 4 13 16 21 21 21 13z m370 0 c0 -2 -8 -10 -17 -17 -16 -13 -17 -12 -4 4 13
16 21 21 21 13z m-640 -478 c-23 -35 -23 -31 -1 15 8 15 16 25 19 22 2 -2 -5
-19 -18 -37z m-75 -148 c-21 -39 -39 -69 -41 -67 -2 1 13 35 33 75 20 39 38
70 41 68 2 -3 -13 -36 -33 -76z m-241 -529 c-7 -22 -15 -50 -18 -64 -2 -14
-20 -74 -39 -133 -19 -60 -38 -128 -42 -151 -4 -24 -10 -45 -15 -48 -15 -9 77
335 110 413 16 37 19 25 4 -17z m-135 -525 c-6 -25 -15 -48 -19 -51 -8 -5 3
59 15 88 14 32 16 10 4 -37z m128 -278 c-3 -8 -6 -5 -6 6 -1 11 2 17 5 13 3
-3 4 -12 1 -19z m-670 -330 c-3 -8 -6 -5 -6 6 -1 11 2 17 5 13 3 -3 4 -12 1
-19z m3 -150 c-1 -68 -3 -158 -3 -200 -1 -43 -6 -78 -11 -78 -5 0 -6 83 -3
198 4 108 7 201 7 206 0 5 3 7 6 3 3 -3 5 -61 4 -129z m880 -279 c0 -26 3 -30
19 -26 24 6 29 -10 37 -128 7 -100 -1 -113 -11 -20 -13 109 -24 105 -24 -9 -1
-60 -3 -107 -5 -105 -4 4 -12 87 -22 219 -3 41 -7 81 -9 88 -3 6 0 12 5 12 6
0 10 -14 10 -31z m7417 -66 c1 -32 -4 -71 -12 -88 -12 -28 -13 -26 -8 35 10
125 18 147 20 53z m-8290 -140 c-3 -10 -5 -2 -5 17 0 19 2 27 5 18 2 -10 2
-26 0 -35z m8269 -59 l-15 -59 6 55 c3 30 5 61 6 68 0 7 4 9 9 4 5 -5 2 -34
-6 -68z m-51 -326 c-2 -7 -6 -58 -10 -113 -3 -55 -13 -147 -21 -205 -16 -118
-66 -330 -57 -245 2 28 0 63 -6 78 -9 22 -8 29 4 33 8 4 15 10 15 16 0 5 -4 7
-9 4 -5 -4 -7 3 -4 14 3 11 9 17 14 14 5 -3 6 1 4 8 -3 8 1 36 9 63 15 50 15
50 -4 27 -21 -25 -105 -280 -96 -289 3 -4 6 0 6 7 0 7 2 11 5 8 3 -3 -10 -48
-29 -99 -20 -53 -32 -97 -27 -102 11 -11 51 9 51 25 0 6 3 9 6 6 6 -7 -42 -87
-63 -104 -8 -7 -16 -21 -18 -33 -2 -12 -13 -37 -24 -54 -10 -18 -28 -48 -39
-67 -10 -19 -30 -52 -42 -74 l-23 -39 21 12 c12 6 22 10 22 7 0 -2 -16 -39
-36 -81 -35 -77 -54 -98 -33 -36 6 18 10 34 7 36 -3 3 -63 -75 -162 -213 -34
-47 -36 -53 -17 -47 21 6 21 5 9 -16 -23 -42 -130 -183 -177 -234 -25 -28 -80
-88 -121 -135 -102 -115 -173 -194 -182 -200 -4 -3 -41 -38 -82 -78 -40 -40
-77 -72 -81 -72 -4 0 -40 -28 -79 -63 -130 -116 -103 -82 95 119 204 207 245
249 268 277 12 15 12 17 -3 11 -9 -3 -16 -3 -16 0 0 4 50 56 111 115 86 85
106 110 93 115 -17 7 -30 -4 -92 -79 -18 -22 -30 -31 -26 -20 4 13 -13 2 -47
-30 -51 -48 -45 -34 13 30 15 17 33 41 40 55 13 25 122 194 181 280 172 254
216 327 314 525 65 130 193 424 194 446 0 8 4 5 9 -6 l9 -20 2 20 c1 11 3 31
4 45 1 14 23 85 48 159 26 73 47 139 47 147 0 17 18 64 24 64 3 0 4 -6 1 -12z
m122 -323 c-6 -30 -12 -53 -14 -51 -7 6 9 106 17 106 3 0 2 -25 -3 -55z
m-8116 -152 c0 -13 9 -41 20 -62 15 -29 18 -45 11 -57 -9 -16 -10 -15 -16 4
-4 11 -9 29 -11 40 -2 12 -15 64 -29 117 -14 53 -26 102 -25 108 1 22 51 -128
50 -150z m7890 -166 c-10 -9 -11 -8 -5 6 3 10 9 15 12 12 3 -3 0 -11 -7 -18z
m-10 -40 c-10 -9 -11 -8 -5 6 3 10 9 15 12 12 3 -3 0 -11 -7 -18z m130 -191
c-14 -36 -22 -33 -9 5 6 16 12 28 14 26 3 -2 0 -16 -5 -31z m-1076 -259 c-13
-32 -35 -58 -35 -42 0 12 42 87 46 83 2 -3 -2 -21 -11 -41z m701 -159 c-129
-260 -267 -471 -402 -613 l-66 -70 62 77 c33 43 66 88 73 100 25 46 49 78 57
73 4 -3 13 2 20 10 8 10 9 15 1 15 -6 0 29 60 77 133 112 168 204 333 242 431
6 16 13 26 16 23 4 -3 -33 -84 -80 -179z m-88 -88 c-7 -10 -14 -17 -17 -15 -4
4 18 35 25 35 2 0 -1 -9 -8 -20z m-8 -270 c-9 -30 -58 -100 -92 -131 -10 -9
-17 -18 -15 -20 1 -2 -20 -26 -46 -54 l-49 -50 59 75 c32 42 78 106 102 143
25 37 46 67 47 67 2 0 -1 -14 -6 -30z m-500 -3 c0 -2 -12 -14 -27 -28 l-28
-24 24 28 c23 25 31 32 31 24z m-135 -162 c-49 -57 -55 -62 -55 -45 0 8 90
100 98 100 2 0 -18 -25 -43 -55z m-511 -63 c-79 -65 -135 -103 -145 -100 -7 2
11 19 40 37 28 18 51 36 51 40 0 7 57 39 70 40 3 0 -4 -7 -16 -17z m436 -25
c0 -2 -19 -21 -42 -42 -40 -38 -36 -26 7 22 17 20 35 30 35 20z m469 -52 c-44
-47 -66 -62 -33 -22 45 54 58 67 66 67 5 0 -10 -20 -33 -45z m-769 -637 c0 -7
-18 -26 -40 -41 -50 -35 -52 -20 -3 22 41 35 43 36 43 19z m-310 -208 c-11
-20 -30 -28 -30 -12 0 11 22 32 32 32 5 0 4 -9 -2 -20z m-4274 -241 c49 -29
150 -83 224 -121 141 -72 143 -83 5 -19 -154 71 -325 164 -325 177 0 8 2 14 4
14 2 0 43 -23 92 -51z m405 -205 c17 -8 29 -17 27 -20 -7 -6 -68 19 -68 28 0
11 7 10 41 -8z m184 -75 c44 -17 139 -51 210 -75 72 -25 115 -42 97 -38 -53
10 -387 126 -400 139 -12 12 17 4 93 -26z m402 -135 c-3 -3 -12 -4 -19 -1 -8
3 -5 6 6 6 11 1 17 -2 13 -5z m40 -10 c-3 -3 -12 -4 -19 -1 -8 3 -5 6 6 6 11
1 17 -2 13 -5z"/>
<path d="M9563 4160 c-6 -16 -10 -30 -8 -30 2 0 13 14 25 30 15 21 17 30 8 30
-8 0 -19 -13 -25 -30z"/>
<path d="M9509 4017 c-9 -12 -20 -38 -24 -57 -4 -19 -13 -42 -20 -50 -26 -30
-92 -160 -81 -160 8 0 78 123 114 203 40 85 44 109 11 64z"/>
<path d="M9300 3680 c-19 -16 -29 -29 -22 -30 7 0 -12 -33 -42 -72 -30 -40
-59 -86 -65 -103 l-11 -30 18 25 c9 13 34 44 55 68 38 45 117 156 117 166 0
13 -18 4 -50 -24z"/>
<path d="M9085 3320 c-10 -11 -16 -22 -13 -25 3 -3 13 6 22 20 20 30 16 32 -9
5z"/>
<path d="M4841 10204 c-209 -48 -412 -112 -561 -176 -63 -28 -119 -54 -124
-59 -5 -4 96 27 225 71 129 43 308 100 399 126 91 26 169 51 175 55 13 12 6
11 -114 -17z"/>
<path d="M5131 10214 c-36 -8 -67 -17 -70 -20 -3 -4 8 -4 24 0 17 3 48 8 69
10 21 3 44 10 49 15 13 13 10 13 -72 -5z"/>
<path d="M4850 10154 l-45 -12 45 0 c45 0 120 15 88 17 -9 0 -22 3 -30 5 -7 2
-33 -2 -58 -10z"/>
<path d="M6150 10150 c0 -5 17 -10 39 -10 21 0 67 -2 102 -5 60 -4 61 -4 14 4
-107 18 -155 21 -155 11z"/>
<path d="M4695 10110 c-16 -4 -57 -17 -90 -27 -58 -19 -59 -20 -29 -27 23 -5
47 0 97 23 83 37 91 49 22 31z"/>
<path d="M7070 10111 c-24 -7 -24 -8 10 -15 19 -5 40 -11 45 -14 35 -22 47 -1
13 22 -24 17 -30 18 -68 7z"/>
<path d="M6702 10094 c13 -13 96 -31 108 -24 8 5 -6 12 -39 19 -58 12 -77 14
-69 5z"/>
<path d="M5719 10086 c-2 -2 -33 -7 -69 -11 -36 -3 -72 -8 -80 -10 -8 -2 -44
-7 -80 -10 -36 -4 -76 -8 -90 -10 -14 -2 -50 -7 -80 -11 -30 -4 -57 -9 -60 -9
-3 -1 -25 -6 -50 -10 -40 -8 -42 -10 -20 -16 21 -6 22 -7 5 -9 -59 -5 -78 -16
-55 -31 13 -8 12 -11 -3 -23 -14 -11 -15 -15 -5 -20 7 -3 -10 -4 -39 -1 -42 4
-51 2 -47 -9 3 -7 15 -12 27 -11 12 1 34 3 50 4 16 1 27 7 27 16 0 12 5 13 26
4 28 -10 89 3 96 21 8 22 506 42 633 25 l50 -6 -28 29 c-15 15 -24 31 -20 35
3 4 -3 7 -15 7 -12 0 -22 -6 -22 -13 0 -8 -10 -13 -22 -12 -27 1 -103 48 -115
70 -5 9 -11 14 -14 11z"/>
<path d="M6855 10062 c6 -5 26 -12 45 -16 41 -7 21 8 -25 18 -19 5 -26 4 -20
-2z"/>
<path d="M5298 10053 c7 -3 16 -2 19 1 4 3 -2 6 -13 5 -11 0 -14 -3 -6 -6z"/>
<path d="M6074 10051 c5 -8 56 -3 56 5 0 2 -14 4 -31 4 -16 0 -28 -4 -25 -9z"/>
<path d="M6355 10050 c-3 -5 2 -10 12 -10 10 0 36 -3 57 -7 24 -4 37 -2 33 3
-3 6 -22 11 -43 12 -20 2 -41 5 -45 8 -4 2 -10 0 -14 -6z"/>
<path d="M7145 10049 c4 -5 12 -9 18 -9 7 0 95 -29 197 -64 102 -36 187 -63
189 -60 8 8 -149 74 -211 89 -35 8 -93 23 -131 34 -37 11 -65 15 -62 10z"/>
<path d="M5985 10030 c7 -11 45 -20 45 -10 0 4 -11 10 -25 12 -13 3 -22 2 -20
-2z"/>
<path d="M6270 10015 c0 -10 10 -15 28 -16 46 -1 101 -7 130 -13 48 -11 -5 15
-62 30 -67 18 -96 18 -96 -1z"/>
<path d="M5974 9999 c-5 -9 2 -13 43 -22 37 -8 35 9 -2 20 -21 7 -37 7 -41 2z"/>
<path d="M4371 9989 c-13 -5 -22 -12 -19 -14 3 -3 20 1 39 9 37 17 19 21 -20
5z"/>
<path d="M6776 9967 c39 -33 69 -41 93 -25 12 7 21 16 21 19 0 8 -68 26 -109
28 l-33 1 28 -23z"/>
<path d="M6054 9961 c3 -5 15 -7 26 -4 28 7 25 13 -6 13 -14 0 -23 -4 -20 -9z"/>
<path d="M5510 9940 c0 -5 6 -10 14 -10 8 0 18 5 21 10 3 6 -3 10 -14 10 -12
0 -21 -4 -21 -10z"/>
<path d="M6981 9936 c4 -5 228 -75 264 -83 16 -3 17 -2 5 5 -15 10 -249 82
-265 82 -5 0 -6 -2 -4 -4z"/>
<path d="M7640 9920 c8 -5 26 -10 40 -10 20 0 22 2 10 10 -8 5 -26 10 -40 10
-20 0 -22 -2 -10 -10z"/>
<path d="M6070 9900 c0 -13 11 -13 30 0 12 8 11 10 -7 10 -13 0 -23 -4 -23
-10z"/>
<path d="M7575 9899 c9 -14 139 -70 154 -66 9 2 -16 19 -55 39 -66 32 -109 44
-99 27z"/>
<path d="M4920 9890 c-14 -5 -65 -21 -115 -36 -88 -27 -180 -63 -160 -64 6 0
25 4 43 9 17 5 32 6 32 1 0 -4 -11 -11 -25 -14 -14 -4 -25 -11 -25 -16 0 -6
14 -4 33 4 17 7 31 17 30 23 -1 5 14 8 32 8 22 -1 49 8 76 26 23 16 57 31 75
35 19 3 34 12 34 20 0 8 -1 14 -2 13 -2 0 -14 -4 -28 -9z"/>
<path d="M5757 9894 c-1 -1 -47 -4 -102 -8 -96 -6 -115 -8 -215 -21 -182 -24
-282 -44 -275 -55 5 -8 12 -8 130 4 39 4 87 9 107 11 21 2 55 9 75 14 94 25
203 36 203 22 0 -7 5 -9 10 -6 6 4 8 10 6 14 -3 4 16 9 42 10 26 2 53 3 60 4
6 0 12 4 12 8 0 5 -46 8 -53 3z"/>
<path d="M6489 9879 c-11 -7 -9 -9 6 -10 39 -3 78 -8 91 -13 7 -3 16 -1 19 4
10 16 -94 33 -116 19z"/>
<path d="M4533 9859 c-18 -5 -33 -14 -33 -19 0 -10 46 6 65 22 10 9 11 9 -32
-3z"/>
<path d="M5758 9863 c17 -2 47 -2 65 0 17 2 3 4 -33 4 -36 0 -50 -2 -32 -4z"/>
<path d="M3807 9808 c-55 -29 -94 -54 -89 -56 12 -4 159 73 182 94 22 21 13
17 -93 -38z"/>
<path d="M5864 9848 c-3 -4 11 -8 30 -8 20 0 36 2 36 4 0 8 -61 12 -66 4z"/>
<path d="M5948 9848 c-9 -5 -4 -8 15 -8 15 0 27 4 27 8 0 11 -25 11 -42 0z"/>
<path d="M5828 9843 c7 -3 16 -2 19 1 4 3 -2 6 -13 5 -11 0 -14 -3 -6 -6z"/>
<path d="M6013 9843 c9 -2 25 -2 35 0 9 3 1 5 -18 5 -19 0 -27 -2 -17 -5z"/>
<path d="M4405 9810 c-32 -15 -35 -19 -17 -19 22 -1 82 24 82 34 0 9 -25 3
-65 -15z"/>
<path d="M5483 9813 c9 -2 25 -2 35 0 9 3 1 5 -18 5 -19 0 -27 -2 -17 -5z"/>
<path d="M5040 9789 c-123 -34 -367 -110 -420 -132 -14 -5 -29 -11 -35 -13
-74 -18 -450 -201 -593 -288 -234 -142 -460 -307 -480 -351 -9 -19 6 -11 61
34 103 83 236 177 359 254 110 69 130 78 108 52 -11 -13 -10 -14 4 -9 9 3 15
13 14 21 -4 19 253 153 293 153 15 0 31 5 34 10 3 6 15 10 26 10 10 0 19 7 19
15 0 9 20 24 46 35 110 48 320 121 444 156 74 20 142 43 150 51 8 7 12 13 10
12 -3 0 -21 -5 -40 -10z"/>
<path d="M7921 9796 c2 -2 20 -11 39 -20 l35 -17 -25 20 c-14 11 -31 21 -39
21 -8 0 -12 -2 -10 -4z"/>
<path d="M5230 9771 c-76 -15 -81 -18 -52 -24 19 -4 31 -11 27 -17 -4 -6 4 -5
20 2 17 8 22 14 13 19 -8 5 -4 9 13 13 13 3 42 9 64 14 68 17 5 11 -85 -7z"/>
<path d="M5450 9780 c-13 -9 -13 -10 0 -10 8 0 22 5 30 10 13 9 13 10 0 10 -8
0 -22 -5 -30 -10z"/>
<path d="M7740 9764 c0 -7 52 -25 57 -20 2 2 -10 8 -26 14 -17 6 -31 9 -31 6z"/>
<path d="M5890 9751 c0 -5 9 -7 20 -4 11 3 20 7 20 9 0 2 -9 4 -20 4 -11 0
-20 -4 -20 -9z"/>
<path d="M5584 9741 c-14 -14 2 -21 48 -21 40 0 49 3 40 12 -11 11 -78 18 -88
9z"/>
<path d="M5515 9730 c-4 -6 3 -10 14 -10 25 0 27 6 6 13 -8 4 -17 2 -20 -3z"/>
<path d="M5212 9700 c-57 -13 -50 -23 12 -16 70 8 111 26 56 25 -19 -1 -50 -5
-68 -9z"/>
<path d="M5957 9698 c-7 -4 1 -8 18 -9 17 0 39 -2 49 -4 11 -2 27 0 35 5 10 5
-3 9 -38 11 -29 2 -58 1 -64 -3z"/>
<path d="M6118 9698 c10 -10 141 -13 150 -3 3 3 -17 6 -44 6 -27 1 -64 2 -82
4 -21 1 -30 -1 -24 -7z"/>
<path d="M7970 9703 c0 -13 29 -38 35 -31 3 3 -4 13 -15 23 -11 10 -20 13 -20
8z"/>
<path d="M5850 9690 c0 -13 11 -13 30 0 12 8 11 10 -7 10 -13 0 -23 -4 -23
-10z"/>
<path d="M5085 9675 c-33 -7 -88 -22 -122 -34 -34 -11 -72 -21 -83 -21 -11 0
-20 -4 -20 -10 0 -14 14 -12 115 15 50 14 109 30 133 36 23 6 42 15 42 20 0 5
-1 8 -2 8 -2 -1 -30 -7 -63 -14z"/>
<path d="M5647 9683 c-3 -3 -63 -8 -144 -12 -13 0 -23 -6 -23 -11 0 -7 19 -9
53 -5 28 3 77 7 107 10 69 5 134 15 140 22 2 2 -26 3 -63 2 -37 -1 -68 -4 -70
-6z"/>
<path d="M6440 9682 c0 -5 24 -9 53 -9 43 -1 47 0 22 7 -41 11 -75 12 -75 2z"/>
<path d="M4875 9670 c-16 -7 -17 -9 -3 -9 9 -1 20 4 23 9 7 11 7 11 -20 0z"/>
<path d="M5425 9674 c-69 -8 -166 -26 -162 -31 3 -2 28 0 56 5 54 10 72 -2 20
-13 -17 -4 -28 -9 -25 -12 8 -9 76 18 71 28 -4 5 9 9 27 9 18 0 40 5 48 10 8
5 11 9 5 8 -5 0 -23 -3 -40 -4z"/>
<path d="M3556 9655 c-11 -8 -15 -15 -10 -15 6 0 19 7 30 15 10 8 15 14 9 14
-5 0 -19 -6 -29 -14z"/>
<path d="M6398 9663 c7 -3 16 -2 19 1 4 3 -2 6 -13 5 -11 0 -14 -3 -6 -6z"/>
<path d="M8047 9654 c-3 -3 15 -22 40 -41 30 -23 49 -31 55 -25 7 7 -4 21 -32
41 -44 32 -52 35 -63 25z"/>
<path d="M5218 9633 c6 -2 18 -2 25 0 6 3 1 5 -13 5 -14 0 -19 -2 -12 -5z"/>
<path d="M6756 9632 c-2 -4 4 -9 15 -9 11 -1 17 2 14 8 -7 11 -22 12 -29 1z"/>
<path d="M4765 9610 c-10 -11 -14 -20 -8 -20 20 0 73 22 73 31 0 17 -47 9 -65
-11z"/>
<path d="M5898 9625 c-2 -3 -69 -7 -149 -10 -157 -7 -176 -8 -184 -17 -4 -3
65 -6 152 -6 87 0 178 -3 202 -7 41 -6 43 -5 31 10 -16 19 -45 36 -52 30z"/>
<path d="M5980 9611 c0 -6 3 -11 8 -12 4 0 14 -2 23 -4 9 -1 23 1 30 6 12 7
11 9 -1 9 -8 0 -25 3 -37 6 -14 4 -23 2 -23 -5z"/>
<path d="M5080 9600 c-11 -7 -5 -8 20 -4 43 8 51 14 19 14 -13 0 -31 -5 -39
-10z"/>
<path d="M7495 9560 c27 -12 43 -12 25 0 -8 5 -22 9 -30 9 -10 0 -8 -3 5 -9z"/>
<path d="M7910 9567 c0 -4 143 -108 249 -180 31 -22 80 -60 109 -85 30 -26 62
-53 72 -60 18 -13 18 -11 8 22 -10 31 -31 49 -177 145 -171 111 -261 166 -261
158z"/>
<path d="M7270 9525 c0 -5 68 -35 79 -35 8 1 -61 39 -71 40 -5 0 -8 -2 -8 -5z"/>
<path d="M4892 9468 c-56 -17 -100 -33 -98 -35 3 -3 35 4 73 16 37 11 80 23
96 27 15 3 30 10 33 15 3 5 4 9 2 8 -2 0 -49 -14 -106 -31z"/>
<path d="M5715 9490 c3 -5 8 -10 11 -10 2 0 4 5 4 10 0 6 -5 10 -11 10 -5 0
-7 -4 -4 -10z"/>
<path d="M5793 9493 c15 -2 39 -2 55 0 15 2 2 4 -28 4 -30 0 -43 -2 -27 -4z"/>
<path d="M4303 9470 c-24 -11 -43 -22 -43 -25 0 -7 72 23 85 36 12 12 8 11
-42 -11z"/>
<path d="M4660 9480 c-13 -9 -13 -10 0 -9 8 0 24 4 35 9 l20 9 -20 0 c-11 0
-27 -4 -35 -9z"/>
<path d="M3265 9440 c-21 -16 -34 -30 -28 -30 10 0 81 59 72 60 -3 0 -23 -13
-44 -30z"/>
<path d="M7440 9458 c14 -6 78 -38 144 -70 65 -32 121 -58 125 -58 3 0 -19 15
-49 33 -55 33 -221 108 -237 106 -4 0 3 -5 17 -11z"/>
<path d="M4566 9446 c-16 -7 -25 -16 -20 -19 10 -6 74 18 74 28 0 8 -23 4 -54
-9z"/>
<path d="M4655 9430 c-3 -5 -2 -10 4 -10 5 0 13 5 16 10 3 6 2 10 -4 10 -5 0
-13 -4 -16 -10z"/>
<path d="M8390 9431 c0 -10 30 -24 37 -17 3 2 -5 9 -16 16 -12 6 -21 7 -21 1z"/>
<path d="M4687 9403 c-10 -3 -30 -11 -44 -18 -19 -10 -23 -16 -12 -19 45 -16
74 -9 87 19 12 26 9 28 -31 18z"/>
<path d="M5275 9390 c-3 -5 -2 -10 4 -10 5 0 13 5 16 10 3 6 2 10 -4 10 -5 0
-13 -4 -16 -10z"/>
<path d="M4441 9340 c-24 -11 -42 -23 -39 -25 7 -7 75 22 83 35 8 13 7 13 -44
-10z"/>
<path d="M8035 9330 c3 -5 11 -10 16 -10 6 0 7 5 4 10 -3 6 -11 10 -16 10 -6
0 -7 -4 -4 -10z"/>
<path d="M5396 9309 c-33 -5 -65 -14 -70 -20 -8 -9 -8 -10 0 -6 6 3 33 9 60
13 27 3 67 10 89 14 33 6 35 8 10 8 -16 0 -57 -4 -89 -9z"/>
<path d="M4217 9276 c-37 -18 -65 -35 -61 -38 4 -5 128 54 143 68 12 11 -21
-1 -82 -30z"/>
<path d="M8090 9302 c0 -9 99 -77 104 -71 2 2 -20 21 -50 41 -30 20 -54 34
-54 30z"/>
<path d="M4056 9288 c3 -5 10 -6 15 -3 13 9 11 12 -6 12 -8 0 -12 -4 -9 -9z"/>
<path d="M4393 9286 c-4 -7 -21 -20 -38 -29 -16 -9 -23 -16 -15 -16 24 0 63
25 66 43 3 20 -2 21 -13 2z"/>
<path d="M3895 9243 l-30 -25 35 17 c43 21 43 22 33 28 -4 3 -22 -6 -38 -20z"/>
<path d="M5166 9251 c-3 -4 6 -6 19 -3 14 2 25 6 25 8 0 8 -39 4 -44 -5z"/>
<path d="M4218 9219 c-62 -31 -72 -41 -35 -31 24 6 97 49 97 57 0 7 2 8 -62
-26z"/>
<path d="M8390 9244 c0 -15 22 -43 45 -58 25 -17 26 -17 17 1 -19 33 -62 74
-62 57z"/>
<path d="M2992 9228 c-19 -19 -14 -29 8 -16 20 13 27 28 12 28 -4 0 -13 -5
-20 -12z"/>
<path d="M3898 9194 c-38 -24 -68 -46 -68 -50 0 -3 13 4 29 15 16 12 31 21 34
21 14 0 88 48 80 53 -4 2 -38 -15 -75 -39z"/>
<path d="M4369 9226 c-25 -7 -54 -18 -65 -24 -17 -9 -17 -11 -3 -17 10 -4 42
6 75 24 64 33 63 36 -7 17z"/>
<path d="M4525 9190 c-19 -12 -24 -20 -14 -20 16 0 79 28 79 36 0 11 -38 2
-65 -16z"/>
<path d="M4101 9180 c-8 -4 -11 -15 -8 -24 5 -12 -1 -20 -20 -27 -14 -5 -23
-12 -20 -15 9 -9 80 29 86 46 4 13 2 13 -13 1 -9 -8 -20 -11 -23 -7 -4 4 -1
11 7 16 8 5 12 11 9 14 -2 3 -11 1 -18 -4z"/>
<path d="M4164 9145 c-10 -8 -14 -14 -9 -14 6 0 19 6 29 14 11 8 15 15 10 15
-6 0 -19 -7 -30 -15z"/>
<path d="M3780 9120 c-8 -5 -12 -12 -9 -15 4 -3 12 1 19 10 14 17 11 19 -10 5z"/>
<path d="M4790 9099 c0 -5 5 -7 10 -4 6 3 10 8 10 11 0 2 -4 4 -10 4 -5 0 -10
-5 -10 -11z"/>
<path d="M4120 9090 c-9 -6 -10 -10 -3 -10 6 0 15 5 18 10 8 12 4 12 -15 0z"/>
<path d="M3720 9080 c0 -5 5 -10 10 -10 6 0 10 5 10 10 0 6 -4 10 -10 10 -5 0
-10 -4 -10 -10z"/>
<path d="M3990 9075 c-7 -9 -11 -18 -8 -20 3 -3 11 1 18 10 7 9 11 18 8 20 -3
3 -11 -1 -18 -10z"/>
<path d="M4197 9073 c-4 -3 -7 -11 -7 -17 0 -6 5 -5 12 2 6 6 9 14 7 17 -3 3
-9 2 -12 -2z"/>
<path d="M4045 9039 c-11 -17 1 -21 15 -4 8 9 8 15 2 15 -6 0 -14 -5 -17 -11z"/>
<path d="M4603 9024 c-18 -8 -33 -18 -33 -24 0 -5 16 0 35 11 19 12 35 23 35
25 0 5 2 6 -37 -12z"/>
<path d="M3829 8964 c-52 -36 -101 -74 -110 -83 -8 -9 -36 -32 -62 -51 -26
-19 -45 -40 -42 -47 2 -7 -9 -23 -25 -37 -34 -28 -37 -36 -14 -36 25 0 13 -43
-14 -50 -13 -3 -23 -9 -23 -15 -1 -22 21 -14 55 19 19 20 42 36 50 36 9 0 18
11 22 25 4 17 33 41 92 79 48 31 92 59 97 63 6 5 47 32 93 62 47 31 79 58 74
63 -5 5 -26 11 -47 13 -22 3 -42 10 -45 16 -4 5 -47 -19 -101 -57z"/>
<path d="M4225 9020 c-3 -5 -2 -10 4 -10 5 0 13 5 16 10 3 6 2 10 -4 10 -5 0
-13 -4 -16 -10z"/>
<path d="M4385 8905 c-23 -15 -33 -25 -23 -25 9 0 34 11 54 25 48 32 21 32
-31 0z"/>
<path d="M3969 8852 c-187 -130 -372 -286 -286 -241 46 24 154 105 202 150 28
26 78 68 111 92 52 38 85 68 72 67 -2 -1 -46 -31 -99 -68z"/>
<path d="M4287 8844 c-22 -14 -37 -28 -34 -31 8 -7 65 28 71 44 7 16 9 17 -37
-13z"/>
<path d="M3841 8841 c-8 -5 -9 -11 -3 -15 5 -3 12 1 16 9 6 17 6 18 -13 6z"/>
<path d="M4185 8779 c-11 -17 1 -21 15 -4 8 9 8 15 2 15 -6 0 -14 -5 -17 -11z"/>
<path d="M3590 8769 c0 -5 5 -7 10 -4 6 3 10 8 10 11 0 2 -4 4 -10 4 -5 0 -10
-5 -10 -11z"/>
<path d="M4055 8688 c-38 -27 -79 -56 -89 -64 -11 -7 -17 -16 -14 -19 6 -7 92
50 151 100 62 51 32 41 -48 -17z"/>
<path d="M3938 8673 c7 -3 16 -2 19 1 4 3 -2 6 -13 5 -11 0 -14 -3 -6 -6z"/>
<path d="M3397 8522 c-69 -70 -80 -86 -49 -75 14 5 15 3 5 -8 -7 -7 -13 -20
-13 -28 0 -11 6 -9 19 9 11 13 17 28 15 32 -2 3 5 10 17 13 11 4 27 21 34 39
7 17 23 40 34 50 21 19 27 36 13 36 -4 0 -38 -30 -75 -68z"/>
<path d="M3519 8477 c-80 -80 -176 -182 -227 -242 -63 -73 -236 -312 -296
-408 -88 -141 -185 -328 -179 -345 3 -7 25 26 50 75 164 321 369 606 628 871
100 103 125 132 112 132 -2 0 -42 -38 -88 -83z"/>
<path d="M3867 8542 c-25 -27 -21 -36 5 -12 12 11 19 22 16 25 -2 3 -12 -3
-21 -13z"/>
<path d="M3275 8062 c-18 -13 -38 -42 -29 -42 5 0 17 12 27 25 19 26 19 30 2
17z"/>
<path d="M2345 7918 l-16 -33 20 25 c20 24 26 40 16 40 -2 0 -12 -15 -20 -32z"/>
<path d="M3025 7792 c-12 -8 -37 -52 -31 -52 3 0 14 14 26 30 22 31 23 35 5
22z"/>
<path d="M3191 7774 c0 -11 3 -14 6 -6 3 7 2 16 -1 19 -3 4 -6 -2 -5 -13z"/>
<path d="M2699 7703 c-13 -16 -12 -17 4 -4 16 13 21 21 13 21 -2 0 -10 -8 -17
-17z"/>
<path d="M2947 7669 c-24 -43 -17 -45 11 -3 12 19 19 34 15 34 -5 0 -16 -14
-26 -31z"/>
<path d="M1923 7655 c-9 -25 4 -29 17 -6 7 15 7 21 0 21 -6 0 -13 -7 -17 -15z"/>
<path d="M2646 7635 c-3 -8 -1 -15 4 -15 6 0 10 7 10 15 0 8 -2 15 -4 15 -2 0
-6 -7 -10 -15z"/>
<path d="M10094 6866 c-4 -9 -4 -47 0 -84 3 -37 6 -70 6 -74 0 -5 3 -8 8 -8 8
0 7 169 -2 177 -3 3 -8 -2 -12 -11z"/>
<path d="M2605 6809 c-4 -6 -5 -12 -2 -15 2 -3 7 2 10 11 7 17 1 20 -8 4z"/>
<path d="M10295 6718 c4 -29 14 -87 22 -128 9 -41 15 -84 15 -95 -1 -10 4 -25
9 -31 13 -16 36 -112 45 -190 9 -82 5 -294 -7 -360 -1 -5 0 -11 1 -14 7 -17 5
-48 -2 -44 -5 4 -7 13 -3 23 5 13 4 14 -7 3 -15 -15 -30 -271 -16 -288 12 -16
11 -167 -1 -229 -5 -27 -21 -97 -35 -155 -24 -103 -30 -149 -41 -320 -3 -47
-8 -107 -10 -135 -3 -27 -8 -75 -11 -105 -3 -30 -7 -66 -9 -80 -3 -14 -7 -40
-10 -58 -28 -170 -92 -367 -172 -530 -71 -144 -68 -136 -54 -128 17 11 13 -9
-9 -47 -11 -18 -21 -47 -22 -63 -2 -43 -108 -261 -156 -321 -23 -29 -42 -54
-42 -57 0 -4 -8 -14 -69 -87 -17 -20 -31 -45 -31 -54 0 -10 -19 -36 -42 -59
-24 -22 -62 -63 -85 -91 -23 -27 -58 -67 -78 -89 -20 -21 -34 -44 -32 -50 3
-7 -12 -23 -32 -36 -21 -12 -49 -41 -64 -64 -65 -102 -211 -268 -411 -466 -69
-68 -126 -129 -126 -135 0 -10 -72 -65 -84 -65 -4 0 -41 -26 -84 -58 -42 -32
-112 -84 -154 -115 -81 -60 -99 -73 -157 -122 -20 -17 -48 -37 -63 -44 -15 -8
-36 -22 -47 -32 -10 -9 -43 -29 -72 -44 -49 -25 -89 -56 -89 -69 0 -9 140 66
199 106 29 20 59 34 65 32 14 -5 118 43 199 92 66 40 191 159 182 173 -3 6 13
24 35 42 21 17 37 35 35 40 -3 4 0 11 6 15 6 3 15 1 19 -6 6 -9 18 -3 46 23
22 19 49 44 62 55 16 14 19 21 10 25 -20 7 48 73 96 91 24 10 53 32 69 54 15
20 110 120 210 222 219 224 248 255 358 390 81 99 189 245 189 255 0 2 13 23
29 47 40 60 152 276 197 378 20 47 44 103 54 125 38 84 100 257 139 386 23 74
48 146 56 160 8 15 14 38 13 50 -1 21 26 158 54 274 8 32 12 36 19 22 20 -35
27 -15 13 39 -8 30 -13 63 -10 72 3 9 8 40 11 67 3 28 7 64 9 80 2 17 7 59 11
95 4 36 9 79 11 95 17 135 22 627 11 960 -11 287 -17 338 -43 328 -8 -3 -14 1
-15 8 0 8 -2 25 -5 39 -2 14 -11 65 -19 114 -18 103 -17 101 -56 122 l-31 15
7 -53z m119 -1470 c-2 -122 -13 -260 -24 -328 -5 -30 -12 -73 -16 -95 -8 -57
-39 -178 -68 -265 -35 -106 -62 -179 -67 -185 -3 -2 10 62 28 143 18 81 35
161 38 177 28 161 48 263 55 280 5 11 11 47 13 80 6 69 30 261 36 283 1 1 2 2
4 2 2 0 3 -42 1 -92z m-173 -937 c-12 -28 -19 -51 -16 -51 2 0 0 -11 -5 -25
-6 -16 -6 -25 0 -25 6 0 3 -17 -5 -37 -8 -21 -34 -93 -59 -160 -25 -68 -54
-142 -65 -165 -10 -24 -33 -77 -51 -118 -51 -117 -116 -240 -199 -378 -48 -80
-68 -99 -26 -24 79 138 190 373 260 552 28 71 103 291 111 325 27 110 56 176
72 161 1 -2 -6 -26 -17 -55z m-470 -1008 c-15 -28 -40 -59 -41 -50 0 8 41 67
47 67 2 0 -1 -8 -6 -17z"/>
<path d="M10046 6653 c-4 -17 -4 -51 -1 -75 6 -44 32 -196 40 -237 2 -13 7
-49 10 -80 4 -31 8 -63 10 -71 2 -8 7 -42 10 -75 3 -33 8 -76 10 -95 2 -19 7
-66 10 -105 3 -38 9 -92 12 -120 7 -64 9 -94 11 -124 1 -13 5 -22 8 -18 3 3 7
54 9 114 2 59 10 137 19 171 14 63 14 64 -5 46 -10 -9 -19 -26 -19 -37 0 -40
-10 -9 -15 44 -2 30 -6 70 -9 89 -3 19 -8 58 -11 85 -3 28 -8 61 -10 75 -2 14
-9 61 -15 105 -6 44 -13 90 -15 103 -1 12 -6 50 -10 85 -14 132 -28 173 -39
120z"/>
<path d="M2647 6613 c-11 -20 -16 -62 -8 -68 6 -3 13 11 17 30 6 34 1 56 -9
38z"/>
<path d="M10406 6583 c4 -54 6 -58 13 -28 8 32 4 55 -9 55 -4 0 -6 -12 -4 -27z"/>
<path d="M9985 6290 c-3 -5 -4 -14 -1 -18 3 -5 6 -25 8 -45 3 -57 19 -44 17
14 -3 50 -12 69 -24 49z"/>
<path d="M2286 6275 c4 -8 8 -15 10 -15 2 0 4 7 4 15 0 8 -4 15 -10 15 -5 0
-7 -7 -4 -15z"/>
<path d="M2651 6254 c0 -11 3 -14 6 -6 3 7 2 16 -1 19 -3 4 -6 -2 -5 -13z"/>
<path d="M10254 6008 c2 -35 5 -73 5 -86 1 -14 5 -20 12 -17 10 7 11 109 1
148 -10 41 -22 12 -18 -45z"/>
<path d="M9787 5978 c-13 -20 -23 -90 -17 -123 1 -5 10 23 21 64 20 80 19 96
-4 59z"/>
<path d="M9824 5968 c-5 -18 -7 -58 -4 -88 l6 -55 8 50 c13 87 14 102 7 114
-5 7 -11 -2 -17 -21z"/>
<path d="M2571 5930 c-11 -83 -11 -95 0 -70 5 13 8 38 6 55 -2 16 -5 23 -6 15z"/>
<path d="M10094 5822 c-6 -4 -11 -14 -12 -22 0 -8 -3 -98 -7 -200 -3 -102 -8
-216 -10 -255 -2 -38 -7 -126 -10 -195 -4 -69 -8 -137 -10 -152 -4 -49 11 -30
25 30 7 31 14 107 15 167 4 143 20 462 29 560 5 54 -3 78 -20 67z"/>
<path d="M10150 5473 c0 -69 -2 -124 -5 -121 -3 3 -6 36 -6 72 -1 67 -9 82
-16 29 -8 -64 -9 -263 -2 -251 5 7 9 23 9 35 0 12 5 25 12 29 6 4 9 3 6 -2 -4
-5 -9 -49 -13 -99 -4 -49 -9 -97 -10 -105 -1 -8 -6 -44 -10 -80 -14 -136 -24
-182 -36 -174 -5 3 -9 3 -9 1 0 -3 -7 -21 -15 -41 -19 -45 -11 -47 16 -3 11
17 18 23 15 12 -3 -11 -8 -36 -11 -55 -11 -64 -55 -242 -81 -327 -25 -83 -27
-106 -6 -81 9 12 65 217 92 342 6 27 17 54 24 60 8 6 17 25 20 41 5 22 4 26
-4 15 -5 -8 -10 -24 -10 -34 0 -11 -3 -17 -6 -13 -3 3 0 32 7 64 7 32 13 65
14 73 1 8 7 42 13 75 15 83 21 123 28 202 7 73 14 96 14 45 0 -48 16 -38 24
14 9 67 7 104 -4 104 -5 0 -10 -15 -10 -34 0 -19 -3 -37 -8 -40 -4 -2 -5 25
-2 61 8 87 5 288 -4 302 -19 31 -26 1 -26 -116z m-6 -163 c-6 -6 -10 -3 -10
10 0 13 4 16 10 10 7 -7 7 -13 0 -20z"/>
<path d="M10525 5553 c6 -60 20 -103 35 -103 14 0 13 8 -15 86 l-26 69 6 -52z"/>
<path d="M9590 5538 c0 -23 3 -39 6 -35 10 10 13 77 3 77 -5 0 -9 -19 -9 -42z"/>
<path d="M9560 5470 c0 -11 0 -23 -1 -27 0 -4 3 -9 8 -10 5 -2 10 10 11 27 1
16 -2 30 -8 30 -5 0 -10 -9 -10 -20z"/>
<path d="M10217 5473 c-4 -3 -7 -18 -6 -32 1 -26 1 -25 10 3 9 31 7 41 -4 29z"/>
<path d="M9525 5313 c2 -10 4 -51 4 -90 1 -40 5 -73 10 -73 13 0 34 92 23 99
-5 3 -13 21 -17 38 -7 34 -26 57 -20 26z"/>
<path d="M1650 5286 c0 -8 4 -17 9 -20 5 -4 7 3 4 14 -6 23 -13 26 -13 6z"/>
<path d="M1662 5230 c0 -14 2 -19 5 -12 2 6 2 18 0 25 -3 6 -5 1 -5 -13z"/>
<path d="M9327 5163 c-4 -3 -7 -16 -6 -27 0 -19 1 -19 10 3 10 24 8 36 -4 24z"/>
<path d="M9522 5112 c-7 -21 -7 -29 2 -29 6 0 11 13 12 29 1 35 -1 35 -14 0z"/>
<path d="M9427 5065 c-8 -25 -11 -48 -6 -51 5 -2 11 5 13 18 3 13 7 35 11 51
9 42 -1 32 -18 -18z"/>
<path d="M10266 5074 c-4 -20 -5 -38 -3 -40 3 -3 8 11 11 32 4 20 5 38 3 40
-3 3 -8 -11 -11 -32z"/>
<path d="M10492 5078 c-17 -57 -20 -78 -11 -72 11 7 39 71 39 90 0 26 -18 14
-28 -18z"/>
<path d="M9511 5025 c-7 -27 -15 -61 -18 -74 -4 -16 -2 -22 5 -17 13 8 36 108
30 127 -3 8 -10 -8 -17 -36z"/>
<path d="M9110 5031 c0 -5 -3 -16 -6 -25 -3 -9 -2 -16 4 -16 13 0 23 38 11 46
-5 3 -9 1 -9 -5z"/>
<path d="M1580 5018 c0 -9 5 -20 10 -23 13 -8 13 5 0 25 -8 13 -10 13 -10 -2z"/>
<path d="M2746 4985 c3 -22 10 -65 17 -95 6 -30 11 -58 11 -62 1 -3 4 -9 8
-13 14 -14 -3 95 -26 165 l-15 45 5 -40z"/>
<path d="M10467 4956 c-4 -10 -7 -25 -6 -34 0 -11 4 -9 10 7 5 13 8 29 6 35
-2 5 -6 2 -10 -8z"/>
<path d="M9433 4928 c-6 -7 -7 -22 -3 -33 7 -18 8 -17 15 8 8 32 3 43 -12 25z"/>
<path d="M9061 4861 c0 -35 -4 -67 -7 -72 -3 -5 -1 -9 4 -9 14 0 40 64 32 80
-5 8 -12 26 -18 40 -7 21 -9 14 -11 -39z"/>
<path d="M9464 4828 c-10 -40 -18 -76 -19 -80 0 -3 -3 -10 -7 -14 -11 -10 -10
-34 1 -34 9 0 27 53 51 145 12 49 12 55 1 55 -5 0 -17 -33 -27 -72z"/>
<path d="M8870 4815 c0 -8 2 -15 4 -15 2 0 6 7 10 15 3 8 1 15 -4 15 -6 0 -10
-7 -10 -15z"/>
<path d="M10441 4799 c-6 -18 -9 -34 -7 -36 2 -2 9 10 15 28 6 18 9 34 7 36
-2 2 -9 -10 -15 -28z"/>
<path d="M8847 4728 c-3 -7 -32 -81 -66 -165 -33 -84 -69 -169 -80 -189 -11
-20 -18 -41 -15 -46 6 -9 62 70 83 117 13 31 73 219 85 268 7 28 2 37 -7 15z"/>
<path d="M9040 4729 c0 -5 -9 -31 -21 -56 -24 -52 -19 -71 6 -22 18 34 30 89
21 89 -3 0 -6 -5 -6 -11z"/>
<path d="M8902 4668 c-7 -7 -12 -19 -12 -27 0 -11 5 -8 16 7 18 25 15 39 -4
20z"/>
<path d="M10192 4578 c-11 -24 -34 -90 -52 -147 -17 -57 -34 -111 -38 -120 -5
-13 -3 -14 9 -4 9 7 22 31 29 53 16 48 29 61 23 22 -4 -21 -2 -24 6 -12 7 9 9
31 5 54 -4 25 -3 36 4 32 10 -6 26 23 17 32 -3 3 -5 -1 -5 -8 0 -7 -3 -10 -7
-7 -3 4 4 19 18 34 13 14 18 23 11 19 -14 -9 -11 19 7 67 17 43 -5 31 -27 -15z"/>
<path d="M8965 4529 c-31 -80 -26 -107 6 -34 27 62 40 105 30 105 -4 0 -20
-32 -36 -71z"/>
<path d="M9903 4587 c-18 -24 -34 -69 -23 -65 17 5 52 66 42 72 -6 3 -14 0
-19 -7z"/>
<path d="M8863 4552 c-11 -20 -35 -64 -53 -97 -68 -127 -96 -174 -169 -290
-159 -254 -343 -476 -566 -681 -32 -30 -41 -42 -25 -34 32 14 -122 -134 -225
-216 -112 -90 -202 -149 -330 -216 -116 -61 -120 -78 -7 -29 130 55 462 266
462 293 0 6 -8 4 -17 -3 -9 -8 59 63 153 156 346 348 553 631 745 1023 33 68
59 126 56 128 -2 2 -13 -13 -24 -34z"/>
<path d="M9202 4520 c-14 -23 -15 -30 -3 -30 8 0 24 41 18 47 -2 1 -8 -7 -15
-17z"/>
<path d="M9861 4481 c-8 -5 -9 -11 -3 -15 5 -3 12 1 16 9 6 17 6 18 -13 6z"/>
<path d="M8912 4388 c-11 -18 -52 -97 -91 -175 -69 -136 -138 -243 -212 -327
-216 -247 -283 -321 -404 -441 -157 -157 -201 -197 -296 -272 -71 -56 -246
-166 -344 -215 -33 -17 -87 -49 -120 -71 -67 -44 -247 -137 -267 -137 -16 0
-41 -37 -29 -44 4 -3 42 12 85 33 42 21 93 42 114 46 36 7 203 105 387 228
167 112 289 210 406 326 113 114 157 154 309 282 110 92 169 155 224 238 59
90 152 266 200 378 34 81 69 183 61 183 -2 0 -12 -15 -23 -32z"/>
<path d="M9829 4369 c-6 -12 -12 -31 -14 -43 -1 -11 -6 -29 -10 -40 -6 -13 -4
-17 5 -14 13 4 16 13 24 69 1 14 6 31 10 38 4 6 5 11 2 11 -3 0 -10 -10 -17
-21z"/>
<path d="M8649 4339 c-34 -61 -80 -160 -85 -186 -1 -7 -9 -27 -18 -44 -22 -44
-21 -72 0 -44 19 24 91 177 124 262 20 52 6 60 -21 12z"/>
<path d="M9879 4353 c-6 -16 -13 -44 -16 -63 -3 -19 -10 -43 -15 -53 -6 -11
-5 -24 2 -35 11 -16 11 -16 6 1 -3 9 -2 17 3 17 4 0 8 13 9 29 0 16 7 42 15
58 8 15 18 38 21 51 11 32 -12 28 -25 -5z"/>
<path d="M9230 4335 c0 -8 2 -15 4 -15 2 0 6 7 10 15 3 8 1 15 -4 15 -6 0 -10
-7 -10 -15z"/>
<path d="M1922 4248 c25 -61 26 -63 34 -56 7 8 -36 108 -47 108 -4 0 2 -24 13
-52z"/>
<path d="M9953 4236 c-11 -36 -11 -38 3 -24 9 8 14 26 12 39 -2 20 -5 18 -15
-15z"/>
<path d="M3160 4203 c0 -10 5 -25 10 -33 7 -11 10 -7 10 18 0 17 -4 32 -10 32
-5 0 -10 -8 -10 -17z"/>
<path d="M8496 4103 c-25 -31 -57 -79 -71 -107 l-27 -51 54 58 c54 59 115 157
98 157 -6 0 -30 -25 -54 -57z"/>
<path d="M3100 4121 c0 -5 5 -13 10 -16 6 -3 10 -2 10 4 0 5 -4 13 -10 16 -5
3 -10 2 -10 -4z"/>
<path d="M8837 4107 c-11 -29 -9 -43 4 -30 6 6 9 19 7 29 -3 18 -4 18 -11 1z"/>
<path d="M2040 4054 c0 -6 7 -19 16 -30 14 -18 14 -18 3 6 -14 31 -19 36 -19
24z"/>
<path d="M9953 3992 c-6 -4 -17 -21 -23 -37 l-11 -30 25 30 c31 37 35 54 9 37z"/>
<path d="M9669 3923 c-22 -26 -40 -73 -29 -73 10 0 54 79 47 86 -2 2 -10 -4
-18 -13z"/>
<path d="M8986 3905 c-10 -7 -16 -18 -15 -23 2 -6 12 1 22 14 21 27 19 29 -7
9z"/>
<path d="M8339 3871 c-24 -20 -24 -20 -3 -21 12 0 25 7 28 16 10 25 1 27 -25
5z"/>
<path d="M2010 3858 c0 -9 5 -20 10 -23 13 -8 13 5 0 25 -8 13 -10 13 -10 -2z"/>
<path d="M8160 3681 c-218 -221 -370 -349 -654 -553 -158 -113 -163 -117 -149
-118 28 -1 443 301 573 417 147 131 401 396 389 407 -2 2 -74 -67 -159 -153z"/>
<path d="M8933 3813 c-10 -16 -20 -30 -23 -33 -15 -13 -53 -84 -38 -72 25 20
100 132 89 132 -6 0 -18 -12 -28 -27z"/>
<path d="M8664 3668 c-9 -18 -20 -35 -23 -38 -8 -6 -31 -48 -31 -55 0 -15 23
11 55 61 38 59 40 64 25 64 -5 0 -17 -15 -26 -32z"/>
<path d="M8797 3647 c-14 -17 -35 -43 -48 -57 -56 -62 -62 -70 -52 -70 10 0
77 62 103 96 8 11 21 27 28 36 8 9 9 19 4 22 -6 3 -21 -9 -35 -27z"/>
<path d="M3560 3653 c1 -10 90 -109 90 -99 0 11 -19 45 -38 68 -20 23 -52 42
-52 31z"/>
<path d="M3670 3526 c0 -4 7 -14 15 -22 8 -9 15 -11 15 -6 0 5 -7 15 -15 22
-8 7 -15 9 -15 6z"/>
<path d="M8637 3469 c-28 -31 -16 -41 21 -17 25 15 30 23 20 29 -17 11 -20 11
-41 -12z"/>
<path d="M9653 3338 c-22 -26 -37 -48 -30 -48 3 0 17 16 31 35 30 39 30 46 -1
13z"/>
<path d="M8315 3292 c-5 -4 -17 -16 -25 -27 -11 -15 -7 -14 13 4 24 22 32 31
25 31 -2 0 -7 -4 -13 -8z"/>
<path d="M9798 3183 c-29 -37 -61 -79 -70 -93 -54 -80 -116 -159 -120 -155 -8
9 -55 -43 -183 -200 -22 -27 -54 -65 -71 -84 -17 -20 -44 -51 -60 -70 -16 -19
-62 -68 -102 -110 -41 -42 -81 -89 -89 -106 l-16 -30 25 23 c14 13 30 22 36
20 6 -2 27 12 46 30 39 36 92 107 63 83 -9 -7 -17 -10 -17 -6 0 8 271 325 278
325 5 0 -53 -70 -149 -180 -52 -61 -86 -110 -75 -110 11 0 85 80 138 150 31
41 92 120 135 175 71 90 269 361 287 393 18 31 -7 6 -56 -55z m-587 -741 c-47
-61 -69 -73 -25 -15 21 28 43 52 47 52 5 1 -5 -16 -22 -37z"/>
<path d="M9409 3034 c-13 -14 -17 -23 -9 -19 13 5 46 45 37 45 -2 0 -14 -11
-28 -26z"/>
<path d="M9019 2978 c-12 -23 -12 -23 10 -4 23 21 26 26 11 26 -5 0 -15 -10
-21 -22z"/>
<path d="M7250 2970 c-24 -15 -7 -18 25 -4 23 10 25 13 10 13 -11 1 -27 -3
-35 -9z"/>
<path d="M7210 2940 c-9 -6 -10 -10 -3 -10 6 0 15 5 18 10 8 12 4 12 -15 0z"/>
<path d="M7287 2909 c-6 -10 -17 -19 -24 -19 -6 0 -15 -4 -18 -10 -6 -9 39 5
104 33 l34 15 -42 0 c-31 1 -45 -4 -54 -19z"/>
<path d="M7105 2895 c-27 -13 -45 -24 -39 -24 20 -2 104 31 104 40 0 13 -8 11
-65 -16z"/>
<path d="M2689 2856 c19 -20 37 -36 39 -36 10 0 -46 64 -59 68 -8 3 2 -12 20
-32z"/>
<path d="M6881 2818 c-33 -6 -49 -13 -41 -18 14 -8 90 6 105 21 10 10 11 10
-64 -3z"/>
<path d="M6690 2768 c0 -10 29 -9 55 2 16 7 12 9 -17 8 -21 -1 -38 -6 -38 -10z"/>
<path d="M6915 2764 c-27 -8 -61 -16 -74 -19 -28 -5 -41 -15 -19 -15 37 0 129
24 139 36 6 8 10 13 8 13 -2 -1 -26 -8 -54 -15z"/>
<path d="M9255 2744 c-19 -15 -22 -21 -9 -15 18 9 52 41 43 41 -2 0 -17 -12
-34 -26z"/>
<path d="M5290 2739 c0 -9 48 -24 55 -17 2 2 -9 9 -25 15 -17 6 -30 7 -30 2z"/>
<path d="M6051 2667 c-8 -11 -6 -13 12 -11 12 1 27 3 32 3 6 1 3 6 -5 11 -20
13 -26 12 -39 -3z"/>
<path d="M9329 2658 c-12 -23 -12 -23 10 -4 23 21 26 26 11 26 -5 0 -15 -10
-21 -22z"/>
<path d="M5870 2666 c0 -2 7 -9 15 -16 13 -11 14 -10 9 4 -5 14 -24 23 -24 12z"/>
<path d="M6236 2659 c3 -6 0 -15 -7 -20 -9 -6 3 -9 34 -9 48 0 56 7 35 28 -15
15 -72 16 -62 1z"/>
<path d="M6396 2652 c-3 -5 1 -9 9 -9 8 0 15 4 15 9 0 4 -4 8 -9 8 -6 0 -12
-4 -15 -8z"/>
<path d="M5948 2638 c5 -5 16 -8 23 -6 8 3 3 7 -10 11 -17 4 -21 3 -13 -5z"/>
<path d="M6058 2633 c7 -3 16 -2 19 1 4 3 -2 6 -13 5 -11 0 -14 -3 -6 -6z"/>
<path d="M5710 2480 c-11 -7 -7 -10 20 -11 19 0 43 -2 53 -4 9 -2 17 1 17 6 0
5 -8 9 -17 9 -10 0 -27 3 -38 5 -11 3 -27 1 -35 -5z"/>
<path d="M9036 2300 c-15 -16 -25 -33 -22 -38 3 -5 -4 -18 -17 -28 l-22 -19
19 23 c17 19 17 22 3 16 -15 -5 -22 -18 -15 -26 5 -7 -37 -46 -44 -42 -5 3 -6
10 -3 15 17 26 -14 2 -69 -54 -33 -35 -84 -84 -113 -110 -68 -62 -79 -82 -17
-32 27 21 53 46 58 53 6 10 10 11 15 3 5 -8 14 -4 27 11 19 22 19 23 -1 8 -18
-14 -19 -14 -6 2 7 10 17 15 23 12 13 -8 39 16 31 29 -3 5 -1 7 4 4 11 -7 31
11 31 26 0 5 4 12 8 15 4 4 4 1 0 -5 -17 -30 15 -7 99 72 49 46 86 87 82 91
-4 4 -16 -1 -27 -11 -18 -17 -20 -17 -14 -2 9 23 4 21 -30 -13z"/>
<path d="M8992 2303 c-7 -2 -17 -14 -23 -26 -11 -21 -10 -20 15 2 14 14 26 26
26 28 0 3 0 3 -18 -4z"/>
<path d="M8759 2084 c-23 -25 -23 -26 -2 -13 13 7 25 19 27 26 8 19 2 16 -25
-13z"/>
<path d="M8055 1844 c-52 -31 -33 -30 25 1 25 13 38 24 30 24 -8 -1 -33 -12
-55 -25z"/>
<path d="M8370 1770 c-13 -11 -19 -20 -13 -20 14 0 49 28 42 34 -3 3 -16 -3
-29 -14z"/>
<path d="M8300 1735 c-14 -16 -10 -18 14 -9 9 3 16 10 16 15 0 14 -16 11 -30
-6z"/>
<path d="M8209 1681 c-87 -50 -109 -75 -32 -36 39 20 74 43 77 51 3 8 4 14 3
13 -1 -1 -23 -13 -48 -28z"/>
<path d="M7970 1628 c-80 -39 -105 -57 -95 -67 7 -6 205 91 205 101 0 15 -25
7 -110 -34z"/>
<path d="M7710 1589 c-36 -11 -72 -22 -80 -24 -8 -2 -33 -11 -55 -20 -22 -10
-51 -21 -64 -26 -13 -5 -22 -12 -19 -14 2 -3 45 7 94 21 102 29 136 37 114 28
-8 -4 -17 -10 -20 -15 -5 -8 -149 -72 -186 -83 -23 -7 -63 -46 -47 -46 5 0 36
9 69 20 32 12 102 35 154 51 112 36 128 47 63 42 -41 -3 -56 7 -20 13 7 1 37
12 67 23 53 20 43 22 -36 6 -21 -4 -17 -1 13 12 86 37 59 44 -47 12z"/>
<path d="M7932 1523 c-18 -8 -31 -17 -29 -19 2 -2 21 5 43 16 21 10 35 19 29
19 -5 0 -25 -7 -43 -16z"/>
<path d="M7718 1474 c-48 -25 -63 -38 -30 -28 51 17 71 27 76 40 3 8 4 14 3
14 -1 -1 -23 -12 -49 -26z"/>
<path d="M7380 1460 c-8 -5 -10 -10 -5 -10 6 0 17 5 25 10 8 5 11 10 5 10 -5
0 -17 -5 -25 -10z"/>
<path d="M7290 1435 c-14 -8 -20 -14 -14 -15 5 0 19 7 30 15 24 18 16 19 -16
0z"/>
<path d="M6920 1410 c-19 -5 -87 -16 -150 -26 -63 -9 -122 -18 -130 -20 -8 -1
-31 -3 -50 -4 -32 -2 -33 -3 -10 -9 28 -8 61 -6 165 10 39 6 86 12 105 15 62
7 130 26 130 35 0 10 -12 10 -60 -1z"/>
<path d="M7596 1405 c-10 -8 -23 -12 -27 -9 -5 3 -19 -2 -32 -11 -13 -8 -27
-12 -30 -8 -4 3 -7 1 -7 -6 0 -7 -3 -10 -7 -8 -5 3 -15 -2 -23 -11 -13 -14
-13 -15 0 -10 8 3 41 14 73 24 31 10 65 26 74 36 19 21 6 23 -21 3z"/>
<path d="M7193 1403 c9 -2 23 -2 30 0 6 3 -1 5 -18 5 -16 0 -22 -2 -12 -5z"/>
<path d="M7063 1373 c9 -2 25 -2 35 0 9 3 1 5 -18 5 -19 0 -27 -2 -17 -5z"/>
<path d="M7377 1334 c-16 -9 -27 -18 -24 -20 5 -5 77 24 77 31 0 9 -25 4 -53
-11z"/>
<path d="M7283 1307 c-49 -18 -48 -25 2 -14 25 6 45 14 45 19 0 10 -7 9 -47
-5z"/>
</g>
</svg>
